<svg xmlns="http://www.w3.org/2000/svg" xmlns:xlink="http://www.w3.org/1999/xlink" width="200" zoomAndPan="magnify" viewBox="0 0 768 767.999994" height="200" preserveAspectRatio="xMidYMid meet" version="1.0"><defs><g/><clipPath id="22ff6badd0"><path d="M 274.441406 0 L 485.859375 0 L 485.859375 505 L 274.441406 505 Z M 274.441406 0 " clip-rule="nonzero"/></clipPath><clipPath id="23a7c23cd6"><path d="M 282.457031 0 L 493.875 0 L 493.875 494 L 282.457031 494 Z M 282.457031 0 " clip-rule="nonzero"/></clipPath></defs><rect x="-76.8" width="921.6" fill="#ffffff" y="-76.799999" height="921.599993" fill-opacity="1"/><rect x="-76.8" width="921.6" fill="#fffff0" y="-76.799999" height="921.599993" fill-opacity="1"/><g clip-path="url(#22ff6badd0)"><path fill="#2e2e2e" d="M 467.996094 378.070312 L 435.003906 418.234375 L 452.976562 412.960938 C 450.65625 423.160156 442.882812 445.28125 418.613281 453.40625 C 386.640625 464.136719 379.820312 377.472656 379.820312 377.472656 L 368.351562 307.792969 L 402.292969 302.871094 C 406.585938 302.238281 409.679688 299.105469 409.222656 295.871094 L 408.871094 293.375 C 408.414062 290.101562 404.542969 287.992188 400.253906 288.625 L 366.03125 293.585938 L 364.589844 284.757812 C 375.316406 280.042969 382.175781 268.824219 380.910156 256.722656 C 381.613281 255.386719 382.246094 254.085938 382.703125 253.03125 C 384.601562 248.601562 388.859375 237.625 379.855469 234.355469 C 379.222656 234.144531 378.621094 233.933594 378.058594 233.792969 L 376.054688 228.199219 C 376.6875 227.742188 377.25 227.285156 377.707031 226.757812 C 380.664062 223.664062 377.179688 216.875 375.175781 213.566406 C 373.417969 210.683594 369.265625 204.316406 363.992188 205.65625 L 360.789062 199.816406 C 362.480469 196.753906 361.492188 191.164062 360.71875 188.101562 C 359.839844 184.585938 357.484375 176.425781 351.1875 177.269531 L 348.058594 168.335938 C 348.269531 168.230469 348.445312 168.125 348.65625 168.019531 C 352.382812 165.945312 351.082031 158.417969 350.167969 154.691406 C 349.429688 151.699219 347.601562 145.296875 343.132812 144.03125 L 343.0625 135.90625 C 345.316406 134.359375 347.390625 132.109375 348.65625 130.5625 C 350.800781 127.992188 355.339844 122.085938 352.59375 117.582031 L 357.449219 113.433594 C 360.683594 114.59375 365.855469 113.1875 368.738281 112.203125 C 371.976562 111.074219 379.257812 108.296875 378.832031 102.738281 L 385.304688 100.839844 C 387.167969 104.324219 394.203125 104.464844 397.863281 104.289062 C 401.625 104.078125 410.699219 103.304688 410.3125 96.128906 L 418.191406 94.402344 C 418.859375 95.355469 419.703125 96.128906 420.546875 96.761719 C 423.996094 99.292969 430.289062 95.039062 433.351562 92.644531 C 436.375 90.253906 443.585938 84.132812 438.484375 78.402344 C 437.570312 77.382812 436.691406 76.605469 435.847656 76.078125 L 436.199219 67.496094 C 437.042969 67.285156 437.851562 67.003906 438.554688 66.652344 C 442.390625 64.753906 441.476562 57.191406 440.703125 53.394531 C 439.929688 49.59375 437.78125 40.414062 430.324219 42.347656 C 429.621094 42.523438 428.988281 42.734375 428.425781 42.945312 L 424.664062 37.742188 C 425.578125 36.617188 426.210938 35.316406 426.597656 34.082031 C 427.828125 30.003906 421.671875 25.464844 418.402344 23.425781 C 415.835938 21.808594 410.277344 18.609375 406.199219 20.507812 L 401.449219 14.703125 C 401.941406 14.105469 402.363281 13.472656 402.714844 12.839844 C 404.753906 9.078125 399.621094 3.449219 396.808594 0.777344 C 394.554688 -1.371094 389.457031 -5.871094 384.988281 -4.394531 L 381.121094 -10.128906 C 381.191406 -10.199219 381.226562 -10.234375 381.296875 -10.304688 C 384.355469 -13.292969 381.191406 -20.222656 379.328125 -23.597656 C 377.988281 -25.992188 375.140625 -30.808594 371.273438 -31.863281 L 370.109375 -38.125 C 373.945312 -39.601562 374.367188 -46.917969 374.332031 -50.679688 C 374.296875 -54.058594 373.910156 -61.761719 368.632812 -63.203125 L 368.632812 -70.167969 C 368.878906 -70.203125 369.089844 -70.273438 369.300781 -70.34375 C 373.417969 -71.539062 373.875 -79.136719 373.804688 -83.003906 C 373.769531 -86.277344 373.417969 -93.554688 368.632812 -95.351562 L 368.632812 -101.152344 C 368.878906 -101.1875 369.089844 -101.257812 369.300781 -101.328125 C 373.417969 -102.523438 373.875 -110.121094 373.804688 -113.992188 C 373.769531 -117.261719 373.417969 -124.542969 368.632812 -126.335938 L 368.632812 -133.582031 C 368.878906 -133.617188 369.089844 -133.6875 369.300781 -133.757812 C 373.417969 -134.953125 373.875 -142.550781 373.804688 -146.421875 C 373.769531 -149.691406 373.417969 -156.972656 368.632812 -158.765625 L 368.632812 -164.429688 C 368.878906 -164.464844 369.089844 -164.535156 369.300781 -164.605469 C 373.417969 -165.800781 373.875 -173.398438 373.804688 -177.265625 C 373.734375 -181.136719 373.277344 -190.5625 365.574219 -190 C 357.90625 -189.4375 357.765625 -184.722656 357.273438 -180.996094 C 356.78125 -177.265625 357.308594 -172.976562 357.308594 -172.976562 C 358.152344 -167.980469 360.578125 -165.589844 363.289062 -164.675781 L 363.289062 -158.835938 C 357.871094 -157.570312 357.730469 -153.488281 357.273438 -150.148438 C 356.78125 -146.421875 357.308594 -142.128906 357.308594 -142.128906 C 358.152344 -137.136719 360.578125 -134.742188 363.289062 -133.828125 L 363.289062 -126.441406 C 357.871094 -125.175781 357.730469 -121.097656 357.273438 -117.753906 C 356.78125 -114.027344 357.308594 -109.734375 357.308594 -109.734375 C 358.152344 -104.742188 360.578125 -102.347656 363.289062 -101.433594 L 363.289062 -95.457031 C 357.871094 -94.191406 357.730469 -90.109375 357.273438 -86.769531 C 356.78125 -83.039062 357.308594 -78.75 357.308594 -78.75 C 358.152344 -73.753906 360.578125 -71.363281 363.289062 -70.449219 L 363.289062 -62.992188 C 358.398438 -61.585938 358.222656 -57.644531 357.800781 -54.445312 C 357.273438 -50.714844 357.835938 -46.425781 357.835938 -46.425781 C 358.785156 -40.867188 361.703125 -38.511719 364.765625 -37.84375 L 366.066406 -30.949219 C 359.628906 -26.835938 361.738281 -22.648438 363.042969 -19.132812 C 364.34375 -15.578125 366.839844 -12.097656 366.839844 -12.097656 C 370.109375 -7.910156 373.558594 -7.03125 376.476562 -7.664062 L 381.015625 -0.949219 C 377.601562 4.117188 380.558594 7.210938 382.667969 9.957031 C 384.988281 12.945312 388.4375 15.511719 388.4375 15.511719 C 391.8125 17.835938 394.730469 18.257812 397.054688 17.625 L 402.75 24.410156 C 400.113281 30.320312 403.699219 32.816406 406.410156 35.140625 C 409.292969 37.601562 413.160156 39.429688 413.160156 39.429688 C 415.976562 40.625 418.332031 40.835938 420.230469 40.414062 L 424.417969 46.21875 C 423.46875 48.1875 423.714844 50.472656 423.820312 52.515625 C 423.996094 56.277344 425.296875 60.394531 425.296875 60.394531 C 426.667969 64.121094 428.707031 66.125 430.890625 67.003906 L 430.535156 75.023438 C 428.988281 75.445312 427.582031 76.359375 426.246094 77.097656 C 422.976562 78.964844 419.914062 82.023438 419.914062 82.023438 C 417.523438 84.589844 416.574219 87.019531 416.539062 89.164062 L 408.871094 90.816406 C 407.007812 87.792969 403.734375 87.722656 400.957031 87.476562 C 397.195312 87.089844 392.972656 87.828125 392.972656 87.828125 C 387.273438 89.023438 385.058594 92.1875 384.601562 95.355469 L 376.863281 97.640625 C 374.015625 93.558594 370.285156 94.652344 367.121094 95.214844 C 363.394531 95.917969 359.523438 97.746094 359.523438 97.746094 C 353.296875 101.050781 352.769531 105.695312 354.039062 109.210938 L 348.445312 114.03125 C 343.695312 111.746094 340.988281 114.699219 338.527344 116.878906 C 335.710938 119.375 333.355469 123 333.355469 123 C 328.820312 130.667969 333.144531 135.378906 337.050781 137.136719 C 337.296875 137.246094 337.542969 137.316406 337.789062 137.386719 L 337.859375 144.59375 C 332.089844 147.023438 332.933594 151.242188 333.25 154.761719 C 333.601562 158.523438 335.113281 162.53125 335.113281 162.53125 C 337.085938 167.175781 339.96875 168.96875 342.816406 169.25 L 346.300781 179.203125 C 342.921875 181.667969 343.554688 185.183594 343.835938 188.171875 C 344.1875 191.9375 345.703125 195.945312 345.703125 195.945312 C 348.375 202.242188 352.734375 203.296875 356.289062 202.488281 L 359.558594 208.433594 C 355.972656 212.160156 357.835938 215.644531 359.101562 218.632812 C 360.542969 222.113281 363.21875 225.527344 363.21875 225.527344 C 365.925781 228.726562 368.632812 229.851562 371.0625 229.816406 L 372.398438 233.582031 C 370.746094 234.074219 369.511719 235.09375 368.492188 236.324219 C 363.113281 232.84375 356.5 231.222656 349.640625 232.210938 C 334.621094 234.390625 324.175781 248.351562 326.355469 263.371094 C 328.1875 275.894531 338.140625 285.214844 350.132812 286.726562 L 351.257812 295.625 L 317.035156 300.585938 C 312.746094 301.21875 309.648438 304.347656 310.105469 307.582031 L 310.457031 310.082031 C 310.917969 313.316406 314.785156 315.460938 319.074219 314.863281 L 353.015625 309.941406 L 361.773438 380.039062 C 361.773438 380.039062 379.785156 465.050781 346.089844 463.820312 C 320.484375 462.90625 306.800781 443.875 301.664062 434.765625 L 320.378906 434.730469 L 277.292969 405.679688 L 274.441406 457.558594 L 287 441.167969 C 292.449219 452.035156 304.058594 470.359375 324 480.070312 C 353.511719 494.453125 367.929688 496.5625 375.984375 499.589844 C 382.773438 502.121094 386.605469 504.828125 388.859375 504.546875 C 388.894531 504.546875 388.929688 504.546875 389 504.546875 C 389.035156 504.546875 389.105469 504.511719 389.140625 504.511719 C 391.390625 504.160156 394.273438 500.503906 400.078125 496.140625 C 406.9375 490.972656 420.160156 484.851562 444.394531 462.691406 C 460.75 447.746094 466.695312 426.886719 468.839844 414.894531 L 485.546875 427.0625 Z M 362.410156 -170.089844 C 361.84375 -170.96875 361.421875 -172.132812 361.175781 -173.539062 C 361.105469 -174.066406 360.71875 -177.511719 361.140625 -180.433594 L 361.246094 -181.136719 C 361.703125 -184.617188 361.84375 -185.777344 365.855469 -186.058594 C 367.261719 -186.164062 367.824219 -185.707031 368.316406 -184.933594 C 369.265625 -183.457031 369.792969 -180.855469 369.828125 -177.195312 C 369.898438 -172.660156 369.160156 -170.019531 368.5625 -168.929688 L 368.5625 -170.476562 C 368.5625 -171.957031 367.367188 -173.152344 365.890625 -173.152344 C 364.414062 -173.152344 363.21875 -171.957031 363.21875 -170.476562 L 363.21875 -169.140625 C 362.9375 -169.386719 362.65625 -169.703125 362.410156 -170.089844 Z M 362.410156 -139.246094 C 361.84375 -140.125 361.421875 -141.285156 361.175781 -142.691406 C 361.105469 -143.21875 360.71875 -146.667969 361.140625 -149.585938 L 361.246094 -150.289062 C 361.5625 -152.785156 361.738281 -154.089844 363.289062 -154.722656 L 363.289062 -152.222656 C 363.289062 -150.746094 364.484375 -149.550781 365.960938 -149.550781 C 367.4375 -149.550781 368.632812 -150.746094 368.632812 -152.222656 L 368.632812 -153.558594 C 369.40625 -152.011719 369.828125 -149.585938 369.863281 -146.316406 C 369.933594 -141.777344 369.195312 -139.140625 368.597656 -138.050781 L 368.597656 -139.597656 C 368.597656 -141.074219 367.402344 -142.269531 365.925781 -142.269531 C 364.449219 -142.269531 363.253906 -141.074219 363.253906 -139.597656 L 363.253906 -138.261719 C 362.9375 -138.507812 362.65625 -138.824219 362.410156 -139.246094 Z M 362.410156 -106.816406 C 361.84375 -107.695312 361.421875 -108.855469 361.175781 -110.261719 C 361.105469 -110.789062 360.71875 -114.238281 361.140625 -117.15625 L 361.246094 -117.859375 C 361.5625 -120.359375 361.738281 -121.660156 363.289062 -122.292969 L 363.289062 -121.378906 C 363.289062 -119.902344 364.484375 -118.703125 365.960938 -118.703125 C 367.367188 -118.703125 368.527344 -119.796875 368.597656 -121.167969 C 369.371094 -119.617188 369.792969 -117.191406 369.863281 -113.921875 C 369.933594 -109.382812 369.195312 -106.746094 368.597656 -105.65625 L 368.597656 -107.203125 C 368.597656 -108.679688 367.402344 -109.875 365.925781 -109.875 C 364.449219 -109.875 363.253906 -108.679688 363.253906 -107.203125 L 363.253906 -105.867188 C 362.9375 -106.113281 362.65625 -106.429688 362.410156 -106.816406 Z M 362.410156 -75.828125 C 361.84375 -76.707031 361.421875 -77.871094 361.175781 -79.277344 C 361.105469 -79.804688 360.71875 -83.25 361.140625 -86.171875 L 361.246094 -86.875 C 361.5625 -89.371094 361.738281 -90.671875 363.289062 -91.304688 L 363.289062 -88.949219 C 363.289062 -87.472656 364.484375 -86.277344 365.960938 -86.277344 C 367.4375 -86.277344 368.632812 -87.472656 368.632812 -88.949219 L 368.632812 -90.144531 C 369.40625 -88.597656 369.828125 -86.171875 369.863281 -82.898438 C 369.933594 -78.363281 369.195312 -75.722656 368.597656 -74.632812 L 368.597656 -76.179688 C 368.597656 -77.660156 367.402344 -78.855469 365.925781 -78.855469 C 364.449219 -78.855469 363.253906 -77.660156 363.253906 -76.179688 L 363.253906 -74.84375 C 362.9375 -75.125 362.65625 -75.441406 362.410156 -75.828125 Z M 362.9375 -43.542969 C 362.375 -44.421875 361.949219 -45.582031 361.703125 -46.988281 C 361.632812 -47.515625 361.246094 -50.960938 361.667969 -53.882812 L 361.738281 -54.585938 C 362.019531 -56.765625 362.199219 -58.03125 363.253906 -58.734375 L 363.253906 -57.996094 C 363.253906 -56.519531 364.449219 -55.324219 365.925781 -55.324219 C 367.402344 -55.324219 368.597656 -56.519531 368.597656 -57.996094 L 368.597656 -58.699219 C 368.667969 -58.59375 368.773438 -58.488281 368.84375 -58.347656 C 369.792969 -56.871094 370.320312 -54.269531 370.355469 -50.609375 C 370.425781 -46.425781 369.792969 -43.859375 369.230469 -42.625 L 368.878906 -44.457031 C 368.597656 -45.898438 367.226562 -46.847656 365.785156 -46.601562 C 364.34375 -46.320312 363.394531 -44.949219 363.640625 -43.507812 L 363.816406 -42.519531 C 363.535156 -42.769531 363.21875 -43.085938 362.9375 -43.542969 Z M 372.679688 -11.921875 C 371.765625 -12.414062 370.851562 -13.257812 369.96875 -14.382812 C 369.652344 -14.804688 367.71875 -17.691406 366.699219 -20.433594 L 366.453125 -21.101562 C 365.398438 -23.84375 364.941406 -25.039062 366.839844 -26.660156 L 367.050781 -25.53125 C 367.296875 -24.089844 368.703125 -23.140625 370.144531 -23.386719 C 371.589844 -23.667969 372.539062 -25.039062 372.292969 -26.484375 L 372.222656 -26.765625 C 373.382812 -25.675781 374.613281 -23.949219 375.914062 -21.628906 C 378.09375 -17.65625 378.691406 -15.015625 378.691406 -13.75 L 377.777344 -15.121094 C 376.96875 -16.351562 375.316406 -16.667969 374.085938 -15.824219 C 372.855469 -15.015625 372.539062 -13.363281 373.347656 -12.132812 L 373.839844 -11.394531 C 373.453125 -11.570312 373.066406 -11.710938 372.679688 -11.921875 Z M 366.417969 250.78125 C 366.488281 250.570312 366.664062 249.972656 366.980469 249.164062 C 368.703125 251.414062 369.898438 254.085938 370.320312 257.074219 C 370.460938 258.0625 370.496094 259.011719 370.496094 259.960938 C 368.808594 259.46875 366.488281 258.308594 366.066406 255.316406 C 365.890625 254.050781 365.996094 252.539062 366.417969 250.78125 Z M 385.726562 7.5625 L 385.304688 7 C 383.863281 5.171875 383.054688 4.152344 383.441406 2.746094 L 383.511719 2.851562 C 384.320312 4.082031 385.972656 4.398438 387.203125 3.554688 C 388.4375 2.746094 388.753906 1.09375 387.910156 -0.140625 L 387.484375 -0.773438 C 387.484375 -0.773438 387.519531 -0.773438 387.519531 -0.773438 C 389.246094 -0.421875 391.460938 1.023438 394.097656 3.554688 C 398.285156 7.527344 399.375 10.308594 399.234375 10.941406 C 399.128906 11.117188 399.023438 11.328125 398.847656 11.539062 L 397.898438 10.414062 C 396.949219 9.289062 395.257812 9.148438 394.132812 10.097656 C 393.007812 11.011719 392.867188 12.664062 393.78125 13.789062 C 392.832031 13.542969 391.777344 13.050781 390.652344 12.3125 C 390.265625 12.03125 387.519531 9.886719 385.726562 7.5625 Z M 414.710938 35.914062 C 414.21875 35.667969 411.121094 34.117188 408.871094 32.21875 L 408.34375 31.761719 C 406.585938 30.285156 405.601562 29.441406 405.671875 28.035156 C 406.621094 29.019531 408.203125 29.125 409.292969 28.210938 C 410.417969 27.261719 410.558594 25.570312 409.609375 24.445312 L 409.011719 23.707031 C 410.769531 23.707031 413.230469 24.691406 416.328125 26.628906 C 421.25 29.6875 422.835938 32.183594 422.835938 32.851562 C 422.730469 33.203125 422.554688 33.730469 422.238281 34.257812 L 421.320312 32.992188 C 420.476562 31.796875 418.789062 31.550781 417.59375 32.394531 C 416.398438 33.238281 416.152344 34.929688 416.996094 36.125 L 417.417969 36.6875 C 416.574219 36.582031 415.695312 36.300781 414.710938 35.914062 Z M 430.785156 62.363281 C 430.078125 61.589844 429.445312 60.535156 428.953125 59.195312 C 428.8125 58.667969 427.792969 55.363281 427.652344 52.410156 L 427.617188 51.707031 C 427.617188 51.386719 427.582031 51.070312 427.582031 50.753906 L 427.6875 50.894531 C 428.53125 52.09375 430.21875 52.339844 431.417969 51.492188 C 432.613281 50.648438 432.859375 48.960938 432.015625 47.765625 L 430.855469 46.148438 C 430.996094 46.113281 431.171875 46.078125 431.3125 46.007812 C 432.648438 45.65625 433.316406 46.007812 433.949219 46.675781 C 435.144531 47.976562 436.128906 50.4375 436.832031 53.992188 C 437.957031 59.652344 437.253906 62.539062 436.761719 62.996094 C 436.65625 63.066406 436.515625 63.101562 436.339844 63.171875 L 436.375 62.222656 C 436.445312 60.746094 435.285156 59.511719 433.808594 59.441406 C 432.332031 59.371094 431.101562 60.535156 431.03125 61.976562 L 430.996094 62.539062 C 430.960938 62.503906 430.855469 62.433594 430.785156 62.363281 Z M 420.722656 87.863281 C 421.074219 86.878906 421.742188 85.859375 422.730469 84.800781 C 423.117188 84.414062 425.613281 82.023438 428.179688 80.582031 L 428.777344 80.230469 C 429.375 79.878906 429.867188 79.597656 430.324219 79.351562 L 430.289062 80.195312 C 430.21875 81.671875 431.382812 82.902344 432.824219 82.972656 C 434.125 83.042969 435.25 82.164062 435.53125 80.933594 C 436.410156 81.953125 436.410156 82.65625 436.09375 83.535156 C 435.496094 85.1875 433.738281 87.195312 430.855469 89.445312 C 426.316406 93.03125 423.433594 93.699219 422.800781 93.453125 C 422.730469 93.417969 422.660156 93.347656 422.589844 93.3125 L 422.765625 93.277344 C 424.207031 92.960938 425.121094 91.554688 424.804688 90.113281 C 424.488281 88.671875 423.082031 87.757812 421.636719 88.074219 L 420.546875 88.320312 C 420.617188 88.179688 420.652344 88.039062 420.722656 87.863281 Z M 390.265625 93.101562 C 391.109375 92.503906 392.269531 92.046875 393.675781 91.765625 C 394.203125 91.695312 397.652344 91.167969 400.570312 91.484375 L 401.273438 91.554688 C 402.46875 91.660156 403.382812 91.730469 404.085938 91.976562 L 403.839844 92.011719 C 402.398438 92.328125 401.484375 93.734375 401.800781 95.179688 C 402.117188 96.621094 403.523438 97.535156 404.96875 97.21875 L 406.339844 96.902344 C 406.234375 97.640625 405.847656 98.097656 405.285156 98.484375 C 403.839844 99.503906 401.273438 100.101562 397.617188 100.277344 C 393.5 100.488281 390.933594 99.996094 389.632812 99.46875 L 390.265625 99.292969 C 391.671875 98.871094 392.480469 97.394531 392.058594 95.988281 C 391.671875 94.722656 390.441406 93.945312 389.175781 94.085938 C 389.492188 93.734375 389.84375 93.382812 390.265625 93.101562 Z M 358.363281 103.550781 C 358.996094 102.738281 359.980469 102 361.246094 101.296875 C 361.738281 101.050781 364.90625 99.644531 367.789062 99.117188 L 368.492188 98.976562 C 370.425781 98.625 371.625 98.378906 372.609375 98.90625 L 371.34375 99.292969 C 369.933594 99.714844 369.125 101.191406 369.546875 102.597656 C 369.96875 104.007812 371.449219 104.816406 372.855469 104.394531 L 374.753906 103.832031 C 374.648438 104.078125 374.507812 104.289062 374.296875 104.535156 C 373.207031 105.90625 370.886719 107.207031 367.4375 108.402344 C 364.976562 109.246094 363.042969 109.632812 361.5625 109.808594 L 362.09375 109.351562 C 363.21875 108.402344 363.324219 106.714844 362.375 105.589844 C 361.421875 104.464844 359.734375 104.359375 358.609375 105.308594 L 357.378906 106.363281 C 357.34375 105.484375 357.589844 104.5 358.363281 103.550781 Z M 335.324219 128.554688 C 335.464844 127.535156 335.886719 126.375 336.628906 125.144531 C 336.910156 124.6875 338.878906 121.839844 341.09375 119.867188 L 341.621094 119.375 C 342.921875 118.179688 343.800781 117.40625 344.75 117.230469 C 343.695312 118.179688 343.589844 119.832031 344.503906 120.925781 C 345.457031 122.050781 347.144531 122.15625 348.269531 121.207031 L 349.464844 120.152344 C 349.535156 120.433594 349.5 120.75 349.464844 121.101562 C 349.21875 122.859375 347.917969 125.144531 345.597656 127.957031 C 344.609375 129.15625 343.695312 130.105469 342.851562 130.878906 C 342.535156 129.753906 341.480469 128.910156 340.285156 128.945312 C 338.808594 128.980469 337.648438 130.175781 337.648438 131.617188 L 337.648438 133.058594 C 336.488281 132.355469 335.007812 130.914062 335.324219 128.554688 Z M 338.703125 161.125 C 338.527344 160.632812 337.367188 157.363281 337.085938 154.410156 L 337.015625 153.703125 C 336.769531 151.3125 336.628906 150.011719 337.824219 149.0625 L 337.824219 149.871094 C 337.824219 151.347656 339.054688 152.507812 340.496094 152.507812 C 341.972656 152.507812 343.167969 151.277344 343.132812 149.835938 L 343.132812 148.5 C 344.363281 149.730469 345.457031 152.121094 346.300781 155.605469 C 347.671875 161.054688 347.179688 163.976562 346.6875 164.539062 L 346.441406 163.800781 C 345.949219 162.425781 344.433594 161.6875 343.027344 162.179688 C 341.9375 162.566406 341.234375 163.589844 341.269531 164.714844 C 341.058594 164.574219 340.882812 164.433594 340.671875 164.222656 C 339.933594 163.484375 339.265625 162.425781 338.703125 161.125 Z M 351.257812 197.636719 C 350.519531 196.894531 349.851562 195.875 349.289062 194.574219 C 349.113281 194.082031 347.953125 190.8125 347.671875 187.855469 L 347.601562 187.152344 C 347.425781 185.394531 347.320312 184.234375 347.742188 183.355469 C 348.410156 184.339844 349.675781 184.796875 350.835938 184.375 C 352.171875 183.917969 352.875 182.511719 352.523438 181.175781 C 352.945312 181.28125 353.296875 181.527344 353.652344 181.878906 C 354.917969 183.109375 356.007812 185.5 356.886719 189.054688 C 357.484375 191.445312 357.730469 193.34375 357.765625 194.75 C 356.957031 194.082031 355.796875 193.941406 354.8125 194.503906 C 353.511719 195.207031 353.050781 196.824219 353.757812 198.128906 L 354.179688 198.902344 C 353.226562 198.832031 352.207031 198.550781 351.257812 197.636719 Z M 368.984375 225.492188 C 368.070312 225.035156 367.121094 224.226562 366.171875 223.136719 C 365.855469 222.710938 363.78125 219.933594 362.65625 217.191406 L 362.375 216.523438 C 361.527344 214.554688 361.035156 213.355469 361.5625 212.230469 L 362.550781 214.023438 C 363.253906 215.328125 364.871094 215.785156 366.171875 215.082031 C 367.472656 214.378906 367.929688 212.757812 367.226562 211.457031 L 366.136719 209.453125 C 366.277344 209.523438 366.453125 209.558594 366.59375 209.664062 C 368.175781 210.4375 369.933594 212.441406 371.800781 215.574219 C 374.789062 220.53125 375.140625 223.488281 374.824219 224.050781 C 374.753906 224.121094 374.683594 224.191406 374.613281 224.261719 L 373.628906 221.550781 C 373.136719 220.179688 371.589844 219.441406 370.214844 219.933594 C 368.84375 220.425781 368.105469 221.9375 368.597656 223.347656 L 369.441406 225.667969 C 369.300781 225.632812 369.125 225.5625 368.984375 225.492188 Z M 373.980469 238.257812 L 374.789062 240.511719 C 375.28125 241.882812 376.792969 242.621094 378.199219 242.128906 C 379.113281 241.8125 379.714844 241.039062 379.925781 240.160156 C 380.171875 240.546875 380.3125 241.003906 380.382812 241.496094 C 380.664062 243.289062 380.171875 245.855469 378.972656 249.058594 C 377.460938 245.328125 375.140625 242.058594 372.292969 239.382812 C 372.785156 238.820312 373.3125 238.433594 373.980469 238.257812 Z M 355.9375 276.351562 C 346.652344 277.6875 338 271.214844 336.628906 261.929688 C 335.289062 252.644531 341.761719 243.992188 351.046875 242.65625 C 355.480469 242.023438 359.734375 243.148438 363.148438 245.503906 C 362.234375 247.71875 361.703125 249.445312 361.703125 249.445312 C 359.171875 259.257812 364.660156 263.546875 369.652344 264.777344 C 367.71875 270.757812 362.550781 275.402344 355.9375 276.351562 Z M 355.9375 276.351562 " fill-opacity="1" fill-rule="nonzero"/></g><g clip-path="url(#23a7c23cd6)"><path fill="#cf595b" d="M 476.011719 367.488281 L 443.019531 407.65625 L 460.992188 402.378906 C 458.671875 412.582031 450.898438 434.703125 426.628906 442.828125 C 394.65625 453.554688 387.835938 366.890625 387.835938 366.890625 L 376.367188 297.214844 L 410.308594 292.292969 C 414.601562 291.65625 417.695312 288.527344 417.238281 285.292969 L 416.886719 282.792969 C 416.429688 279.523438 412.5625 277.414062 408.269531 278.046875 L 374.046875 283.003906 L 372.605469 274.175781 C 383.332031 269.464844 390.191406 258.246094 388.925781 246.144531 C 389.628906 244.808594 390.261719 243.507812 390.71875 242.453125 C 392.617188 238.019531 396.875 227.046875 387.871094 223.777344 C 387.238281 223.566406 386.636719 223.355469 386.074219 223.214844 L 384.070312 217.621094 C 384.703125 217.164062 385.265625 216.707031 385.722656 216.179688 C 388.679688 213.082031 385.195312 206.296875 383.191406 202.988281 C 381.433594 200.105469 377.28125 193.738281 372.007812 195.074219 L 368.804688 189.238281 C 370.496094 186.175781 369.507812 180.585938 368.734375 177.523438 C 367.855469 174.007812 365.5 165.847656 359.203125 166.691406 L 356.074219 157.757812 C 356.285156 157.652344 356.460938 157.546875 356.671875 157.441406 C 360.398438 155.367188 359.097656 147.839844 358.183594 144.109375 C 357.445312 141.121094 355.617188 134.71875 351.148438 133.453125 L 351.078125 125.328125 C 353.332031 123.78125 355.40625 121.53125 356.671875 119.980469 C 358.816406 117.414062 363.355469 111.503906 360.609375 107.003906 L 365.464844 102.851562 C 368.699219 104.015625 373.871094 102.605469 376.753906 101.621094 C 379.992188 100.496094 387.273438 97.71875 386.851562 92.160156 L 393.320312 90.261719 C 395.183594 93.742188 402.21875 93.882812 405.878906 93.707031 C 409.640625 93.496094 418.714844 92.722656 418.328125 85.546875 L 426.207031 83.824219 C 426.875 84.773438 427.71875 85.546875 428.5625 86.179688 C 432.011719 88.714844 438.308594 84.457031 441.367188 82.066406 C 444.390625 79.675781 451.601562 73.554688 446.5 67.820312 C 445.585938 66.800781 444.707031 66.027344 443.863281 65.5 L 444.214844 56.917969 C 445.058594 56.707031 445.867188 56.425781 446.570312 56.074219 C 450.40625 54.175781 449.492188 46.613281 448.71875 42.8125 C 447.945312 39.015625 445.796875 29.835938 438.34375 31.769531 C 437.636719 31.945312 437.003906 32.15625 436.441406 32.367188 L 432.679688 27.164062 C 433.59375 26.035156 434.226562 24.734375 434.613281 23.503906 C 435.84375 19.425781 429.691406 14.886719 426.417969 12.847656 C 423.851562 11.230469 418.292969 8.027344 414.214844 9.929688 L 409.464844 4.125 C 409.957031 3.527344 410.378906 2.894531 410.730469 2.261719 C 412.773438 -1.503906 407.636719 -7.128906 404.824219 -9.804688 C 402.570312 -11.949219 397.472656 -16.449219 393.003906 -14.972656 L 389.136719 -20.707031 C 389.207031 -20.777344 389.242188 -20.8125 389.3125 -20.882812 C 392.371094 -23.871094 389.207031 -30.800781 387.34375 -34.179688 C 386.003906 -36.570312 383.15625 -41.386719 379.289062 -42.445312 L 378.125 -48.703125 C 381.960938 -50.179688 382.382812 -57.496094 382.347656 -61.261719 C 382.3125 -64.636719 381.925781 -72.339844 376.648438 -73.78125 L 376.648438 -80.746094 C 376.894531 -80.78125 377.105469 -80.851562 377.316406 -80.921875 C 381.433594 -82.117188 381.890625 -89.714844 381.820312 -93.582031 C 381.785156 -96.855469 381.433594 -104.136719 376.648438 -105.929688 L 376.648438 -111.734375 C 376.894531 -111.769531 377.105469 -111.839844 377.316406 -111.910156 C 381.433594 -113.105469 381.890625 -120.703125 381.820312 -124.570312 C 381.785156 -127.839844 381.433594 -135.121094 376.648438 -136.917969 L 376.648438 -144.160156 C 376.894531 -144.195312 377.105469 -144.265625 377.316406 -144.335938 C 381.433594 -145.535156 381.890625 -153.128906 381.820312 -157 C 381.785156 -160.269531 381.433594 -167.550781 376.648438 -169.34375 L 376.648438 -175.007812 C 376.894531 -175.042969 377.105469 -175.113281 377.316406 -175.183594 C 381.433594 -176.378906 381.890625 -183.976562 381.820312 -187.84375 C 381.75 -191.714844 381.292969 -201.140625 373.589844 -200.578125 C 365.921875 -200.015625 365.78125 -195.300781 365.289062 -191.574219 C 364.796875 -187.84375 365.324219 -183.554688 365.324219 -183.554688 C 366.167969 -178.558594 368.59375 -176.167969 371.304688 -175.253906 L 371.304688 -169.414062 C 365.886719 -168.148438 365.746094 -164.070312 365.289062 -160.726562 C 364.796875 -157 365.324219 -152.707031 365.324219 -152.707031 C 366.167969 -147.714844 368.59375 -145.324219 371.304688 -144.40625 L 371.304688 -137.023438 C 365.886719 -135.753906 365.746094 -131.675781 365.289062 -128.335938 C 364.796875 -124.605469 365.324219 -120.316406 365.324219 -120.316406 C 366.167969 -115.320312 368.59375 -112.929688 371.304688 -112.015625 L 371.304688 -106.035156 C 365.886719 -104.769531 365.746094 -100.6875 365.289062 -97.347656 C 364.796875 -93.617188 365.324219 -89.328125 365.324219 -89.328125 C 366.167969 -84.332031 368.59375 -81.941406 371.304688 -81.027344 L 371.304688 -73.570312 C 366.414062 -72.164062 366.238281 -68.226562 365.816406 -65.023438 C 365.289062 -61.296875 365.851562 -57.003906 365.851562 -57.003906 C 366.800781 -51.449219 369.71875 -49.089844 372.78125 -48.421875 L 374.082031 -41.527344 C 367.644531 -37.414062 369.757812 -33.226562 371.058594 -29.710938 C 372.359375 -26.160156 374.855469 -22.675781 374.855469 -22.675781 C 378.125 -18.492188 381.574219 -17.613281 384.492188 -18.246094 L 389.03125 -11.527344 C 385.617188 -6.460938 388.574219 -3.367188 390.683594 -0.625 C 393.003906 2.367188 396.453125 4.933594 396.453125 4.933594 C 399.828125 7.253906 402.746094 7.675781 405.070312 7.042969 L 410.765625 13.832031 C 408.128906 19.742188 411.714844 22.238281 414.425781 24.558594 C 417.308594 27.023438 421.179688 28.851562 421.179688 28.851562 C 423.992188 30.046875 426.347656 30.257812 428.246094 29.835938 L 432.433594 35.640625 C 431.484375 37.609375 431.730469 39.894531 431.835938 41.933594 C 432.011719 45.699219 433.3125 49.8125 433.3125 49.8125 C 434.683594 53.542969 436.722656 55.546875 438.90625 56.425781 L 438.554688 64.445312 C 437.003906 64.867188 435.597656 65.78125 434.261719 66.519531 C 430.992188 68.382812 427.929688 71.445312 427.929688 71.445312 C 425.539062 74.011719 424.589844 76.4375 424.554688 78.585938 L 416.886719 80.238281 C 415.023438 77.210938 411.75 77.140625 408.972656 76.894531 C 405.210938 76.507812 400.988281 77.246094 400.988281 77.246094 C 395.289062 78.445312 393.074219 81.609375 392.617188 84.773438 L 384.878906 87.0625 C 382.03125 82.980469 378.304688 84.070312 375.136719 84.632812 C 371.410156 85.335938 367.539062 87.167969 367.539062 87.167969 C 361.316406 90.472656 360.785156 95.117188 362.054688 98.632812 L 356.460938 103.453125 C 351.710938 101.164062 349.003906 104.121094 346.542969 106.300781 C 343.726562 108.796875 341.371094 112.421875 341.371094 112.421875 C 336.835938 120.085938 341.160156 124.800781 345.066406 126.558594 C 345.3125 126.664062 345.558594 126.734375 345.804688 126.804688 L 345.875 134.015625 C 340.105469 136.441406 340.949219 140.664062 341.265625 144.179688 C 341.617188 147.945312 343.128906 151.953125 343.128906 151.953125 C 345.101562 156.597656 347.984375 158.390625 350.832031 158.671875 L 354.316406 168.625 C 350.9375 171.085938 351.570312 174.605469 351.851562 177.59375 C 352.203125 181.359375 353.71875 185.367188 353.71875 185.367188 C 356.390625 191.664062 360.75 192.71875 364.304688 191.910156 L 367.574219 197.855469 C 363.988281 201.582031 365.851562 205.0625 367.117188 208.054688 C 368.558594 211.535156 371.234375 214.949219 371.234375 214.949219 C 373.941406 218.148438 376.648438 219.273438 379.078125 219.238281 L 380.414062 223 C 378.761719 223.496094 377.527344 224.515625 376.507812 225.746094 C 371.128906 222.261719 364.515625 220.644531 357.65625 221.628906 C 342.636719 223.8125 332.191406 237.773438 334.371094 252.792969 C 336.203125 265.3125 346.15625 274.636719 358.148438 276.148438 L 359.273438 285.046875 L 325.050781 290.003906 C 320.761719 290.636719 317.664062 293.769531 318.121094 297.003906 L 318.476562 299.5 C 318.933594 302.738281 322.800781 304.882812 327.09375 304.285156 L 361.03125 299.359375 L 369.792969 369.460938 C 369.792969 369.460938 387.800781 454.472656 354.105469 453.238281 C 328.5 452.324219 314.816406 433.296875 309.679688 424.1875 L 328.394531 424.152344 L 285.308594 395.101562 L 282.457031 446.980469 L 295.015625 430.589844 C 300.464844 441.457031 312.074219 459.78125 332.015625 469.488281 C 361.527344 483.875 375.945312 485.984375 384 489.011719 C 390.789062 491.542969 394.621094 494.25 396.875 493.96875 C 396.910156 493.96875 396.945312 493.96875 397.015625 493.96875 C 397.050781 493.96875 397.121094 493.933594 397.15625 493.933594 C 399.40625 493.582031 402.289062 489.925781 408.09375 485.5625 C 414.953125 480.394531 428.175781 474.273438 452.410156 452.113281 C 468.765625 437.164062 474.710938 416.308594 476.855469 404.316406 L 493.5625 416.484375 Z M 370.425781 -180.671875 C 369.863281 -181.550781 369.4375 -182.710938 369.191406 -184.117188 C 369.121094 -184.644531 368.734375 -188.09375 369.15625 -191.011719 L 369.261719 -191.714844 C 369.722656 -195.195312 369.863281 -196.355469 373.871094 -196.640625 C 375.277344 -196.746094 375.839844 -196.285156 376.332031 -195.511719 C 377.28125 -194.035156 377.808594 -191.433594 377.84375 -187.773438 C 377.914062 -183.238281 377.175781 -180.601562 376.578125 -179.511719 L 376.578125 -181.058594 C 376.578125 -182.535156 375.382812 -183.730469 373.90625 -183.730469 C 372.429688 -183.730469 371.234375 -182.535156 371.234375 -181.058594 L 371.234375 -179.722656 C 370.953125 -179.96875 370.671875 -180.285156 370.425781 -180.671875 Z M 370.425781 -149.824219 C 369.863281 -150.703125 369.4375 -151.863281 369.191406 -153.269531 C 369.121094 -153.800781 368.734375 -157.246094 369.15625 -160.164062 L 369.261719 -160.867188 C 369.578125 -163.367188 369.757812 -164.667969 371.304688 -165.300781 L 371.304688 -162.804688 C 371.304688 -161.324219 372.5 -160.128906 373.976562 -160.128906 C 375.453125 -160.128906 376.648438 -161.324219 376.648438 -162.804688 L 376.648438 -164.140625 C 377.421875 -162.59375 377.84375 -160.164062 377.878906 -156.894531 C 377.949219 -152.355469 377.210938 -149.71875 376.613281 -148.628906 L 376.613281 -150.175781 C 376.613281 -151.652344 375.417969 -152.847656 373.941406 -152.847656 C 372.464844 -152.847656 371.269531 -151.652344 371.269531 -150.175781 L 371.269531 -148.839844 C 370.953125 -149.085938 370.671875 -149.402344 370.425781 -149.824219 Z M 370.425781 -117.394531 C 369.863281 -118.273438 369.4375 -119.4375 369.191406 -120.84375 C 369.121094 -121.371094 368.734375 -124.816406 369.15625 -127.734375 L 369.261719 -128.441406 C 369.578125 -130.9375 369.757812 -132.238281 371.304688 -132.871094 L 371.304688 -131.957031 C 371.304688 -130.480469 372.5 -129.285156 373.976562 -129.285156 C 375.382812 -129.285156 376.542969 -130.375 376.613281 -131.746094 C 377.386719 -130.199219 377.808594 -127.769531 377.878906 -124.5 C 377.949219 -119.964844 377.210938 -117.324219 376.613281 -116.234375 L 376.613281 -117.78125 C 376.613281 -119.257812 375.417969 -120.457031 373.941406 -120.457031 C 372.464844 -120.457031 371.269531 -119.257812 371.269531 -117.78125 L 371.269531 -116.445312 C 370.953125 -116.691406 370.671875 -117.007812 370.425781 -117.394531 Z M 370.425781 -86.410156 C 369.863281 -87.289062 369.4375 -88.449219 369.191406 -89.855469 C 369.121094 -90.382812 368.734375 -93.832031 369.15625 -96.75 L 369.261719 -97.453125 C 369.578125 -99.949219 369.757812 -101.25 371.304688 -101.882812 L 371.304688 -99.527344 C 371.304688 -98.050781 372.5 -96.855469 373.976562 -96.855469 C 375.453125 -96.855469 376.648438 -98.050781 376.648438 -99.527344 L 376.648438 -100.722656 C 377.421875 -99.175781 377.84375 -96.75 377.878906 -93.476562 C 377.949219 -88.941406 377.210938 -86.304688 376.613281 -85.214844 L 376.613281 -86.761719 C 376.613281 -88.238281 375.417969 -89.433594 373.941406 -89.433594 C 372.464844 -89.433594 371.269531 -88.238281 371.269531 -86.761719 L 371.269531 -85.425781 C 370.953125 -85.707031 370.671875 -86.023438 370.425781 -86.410156 Z M 370.953125 -54.121094 C 370.390625 -55 369.96875 -56.160156 369.722656 -57.566406 C 369.652344 -58.09375 369.261719 -61.542969 369.6875 -64.460938 L 369.757812 -65.164062 C 370.039062 -67.34375 370.214844 -68.613281 371.269531 -69.316406 L 371.269531 -68.578125 C 371.269531 -67.097656 372.464844 -65.902344 373.941406 -65.902344 C 375.417969 -65.902344 376.613281 -67.097656 376.613281 -68.578125 L 376.613281 -69.28125 C 376.683594 -69.175781 376.789062 -69.070312 376.859375 -68.929688 C 377.808594 -67.449219 378.339844 -64.847656 378.375 -61.191406 C 378.445312 -57.003906 377.808594 -54.4375 377.246094 -53.207031 L 376.894531 -55.035156 C 376.613281 -56.476562 375.242188 -57.425781 373.800781 -57.179688 C 372.359375 -56.898438 371.410156 -55.527344 371.65625 -54.085938 L 371.832031 -53.101562 C 371.550781 -53.347656 371.234375 -53.664062 370.953125 -54.121094 Z M 380.695312 -22.5 C 379.78125 -22.992188 378.867188 -23.835938 377.984375 -24.960938 C 377.667969 -25.386719 375.734375 -28.269531 374.714844 -31.011719 L 374.46875 -31.679688 C 373.414062 -34.425781 372.957031 -35.621094 374.855469 -37.238281 L 375.066406 -36.113281 C 375.3125 -34.671875 376.71875 -33.71875 378.160156 -33.96875 C 379.605469 -34.25 380.554688 -35.621094 380.308594 -37.0625 L 380.238281 -37.34375 C 381.398438 -36.253906 382.628906 -34.53125 383.929688 -32.207031 C 386.109375 -28.234375 386.707031 -25.597656 386.707031 -24.328125 L 385.792969 -25.703125 C 384.984375 -26.933594 383.332031 -27.25 382.101562 -26.40625 C 380.871094 -25.597656 380.554688 -23.941406 381.363281 -22.710938 L 381.855469 -21.972656 C 381.46875 -22.148438 381.082031 -22.289062 380.695312 -22.5 Z M 374.433594 240.199219 C 374.503906 239.988281 374.679688 239.390625 374.996094 238.582031 C 376.71875 240.835938 377.914062 243.507812 378.339844 246.496094 C 378.480469 247.480469 378.515625 248.429688 378.515625 249.382812 C 376.824219 248.886719 374.503906 247.726562 374.082031 244.738281 C 373.90625 243.472656 374.011719 241.960938 374.433594 240.199219 Z M 393.742188 -3.015625 L 393.320312 -3.578125 C 391.878906 -5.40625 391.070312 -6.425781 391.457031 -7.832031 L 391.527344 -7.726562 C 392.335938 -6.496094 393.988281 -6.179688 395.21875 -7.023438 C 396.453125 -7.832031 396.769531 -9.488281 395.925781 -10.71875 L 395.503906 -11.351562 C 395.503906 -11.351562 395.539062 -11.351562 395.539062 -11.351562 C 397.261719 -11 399.476562 -9.558594 402.113281 -7.023438 C 406.300781 -3.050781 407.390625 -0.273438 407.25 0.359375 C 407.144531 0.539062 407.039062 0.75 406.863281 0.960938 L 405.914062 -0.167969 C 404.964844 -1.292969 403.273438 -1.433594 402.148438 -0.484375 C 401.023438 0.429688 400.882812 2.085938 401.796875 3.210938 C 400.847656 2.964844 399.792969 2.472656 398.667969 1.734375 C 398.28125 1.453125 395.539062 -0.695312 393.742188 -3.015625 Z M 422.726562 25.332031 C 422.234375 25.085938 419.136719 23.539062 416.886719 21.640625 L 416.359375 21.183594 C 414.601562 19.707031 413.617188 18.863281 413.6875 17.453125 C 414.636719 18.441406 416.21875 18.546875 417.308594 17.632812 C 418.433594 16.679688 418.574219 14.992188 417.625 13.867188 L 417.027344 13.128906 C 418.785156 13.128906 421.25 14.113281 424.34375 16.046875 C 429.265625 19.109375 430.851562 21.605469 430.851562 22.273438 C 430.746094 22.625 430.570312 23.152344 430.253906 23.679688 L 429.335938 22.414062 C 428.492188 21.21875 426.804688 20.972656 425.609375 21.816406 C 424.414062 22.660156 424.167969 24.347656 425.011719 25.542969 L 425.433594 26.105469 C 424.589844 26 423.710938 25.71875 422.726562 25.332031 Z M 438.800781 51.78125 C 438.09375 51.007812 437.460938 49.953125 436.96875 48.617188 C 436.828125 48.089844 435.808594 44.785156 435.667969 41.828125 L 435.632812 41.125 C 435.632812 40.808594 435.597656 40.492188 435.597656 40.175781 L 435.703125 40.316406 C 436.546875 41.511719 438.238281 41.757812 439.433594 40.914062 C 440.628906 40.070312 440.875 38.382812 440.03125 37.1875 L 438.871094 35.570312 C 439.011719 35.535156 439.1875 35.5 439.328125 35.429688 C 440.664062 35.078125 441.332031 35.429688 441.964844 36.097656 C 443.160156 37.398438 444.144531 39.859375 444.847656 43.414062 C 445.972656 49.074219 445.269531 51.960938 444.777344 52.417969 C 444.671875 52.488281 444.53125 52.523438 444.355469 52.59375 L 444.390625 51.640625 C 444.460938 50.164062 443.300781 48.933594 441.824219 48.863281 C 440.347656 48.792969 439.117188 49.953125 439.046875 51.394531 L 439.011719 51.960938 C 438.976562 51.925781 438.871094 51.851562 438.800781 51.78125 Z M 428.738281 77.28125 C 429.089844 76.296875 429.761719 75.277344 430.746094 74.222656 C 431.132812 73.835938 433.628906 71.445312 436.195312 70.003906 L 436.792969 69.652344 C 437.390625 69.300781 437.882812 69.019531 438.34375 68.769531 L 438.308594 69.617188 C 438.238281 71.09375 439.398438 72.324219 440.839844 72.394531 C 442.140625 72.464844 443.265625 71.585938 443.546875 70.355469 C 444.425781 71.375 444.425781 72.078125 444.109375 72.957031 C 443.511719 74.609375 441.753906 76.613281 438.871094 78.867188 C 434.332031 82.453125 431.449219 83.121094 430.816406 82.875 C 430.746094 82.839844 430.675781 82.769531 430.605469 82.734375 L 430.78125 82.699219 C 432.222656 82.382812 433.136719 80.976562 432.820312 79.535156 C 432.503906 78.09375 431.097656 77.175781 429.65625 77.492188 L 428.5625 77.742188 C 428.632812 77.601562 428.667969 77.457031 428.738281 77.28125 Z M 398.28125 82.523438 C 399.125 81.925781 400.285156 81.46875 401.691406 81.1875 C 402.21875 81.117188 405.667969 80.589844 408.585938 80.90625 L 409.289062 80.976562 C 410.484375 81.082031 411.398438 81.152344 412.101562 81.398438 L 411.855469 81.433594 C 410.414062 81.75 409.5 83.15625 409.816406 84.597656 C 410.132812 86.039062 411.539062 86.957031 412.984375 86.640625 L 414.355469 86.324219 C 414.25 87.0625 413.863281 87.519531 413.300781 87.90625 C 411.855469 88.925781 409.289062 89.523438 405.632812 89.699219 C 401.515625 89.910156 398.949219 89.417969 397.648438 88.890625 L 398.28125 88.714844 C 399.6875 88.292969 400.496094 86.816406 400.074219 85.40625 C 399.6875 84.140625 398.457031 83.367188 397.191406 83.507812 C 397.507812 83.15625 397.859375 82.804688 398.28125 82.523438 Z M 366.378906 92.96875 C 367.011719 92.160156 367.996094 91.421875 369.261719 90.71875 C 369.757812 90.472656 372.921875 89.066406 375.804688 88.539062 L 376.507812 88.398438 C 378.445312 88.046875 379.640625 87.800781 380.625 88.328125 L 379.359375 88.714844 C 377.949219 89.136719 377.140625 90.613281 377.5625 92.019531 C 377.984375 93.425781 379.464844 94.234375 380.871094 93.8125 L 382.769531 93.25 C 382.664062 93.496094 382.523438 93.707031 382.3125 93.953125 C 381.222656 95.328125 378.902344 96.628906 375.453125 97.824219 C 372.992188 98.667969 371.058594 99.054688 369.578125 99.230469 L 370.109375 98.773438 C 371.234375 97.824219 371.339844 96.136719 370.390625 95.011719 C 369.4375 93.882812 367.75 93.777344 366.625 94.726562 L 365.394531 95.785156 C 365.359375 94.90625 365.605469 93.917969 366.378906 92.96875 Z M 343.339844 117.976562 C 343.480469 116.957031 343.902344 115.796875 344.644531 114.566406 C 344.925781 114.109375 346.894531 111.257812 349.109375 109.289062 L 349.636719 108.796875 C 350.9375 107.601562 351.816406 106.828125 352.769531 106.652344 C 351.710938 107.601562 351.605469 109.253906 352.519531 110.34375 C 353.472656 111.46875 355.160156 111.574219 356.285156 110.625 L 357.480469 109.570312 C 357.550781 109.851562 357.515625 110.167969 357.480469 110.519531 C 357.234375 112.28125 355.933594 114.566406 353.613281 117.378906 C 352.628906 118.574219 351.710938 119.523438 350.867188 120.296875 C 350.550781 119.171875 349.496094 118.328125 348.300781 118.363281 C 346.824219 118.398438 345.664062 119.59375 345.664062 121.039062 L 345.664062 122.480469 C 344.503906 121.777344 343.023438 120.332031 343.339844 117.976562 Z M 346.71875 150.546875 C 346.542969 150.054688 345.382812 146.785156 345.101562 143.828125 L 345.03125 143.125 C 344.785156 140.734375 344.644531 139.433594 345.839844 138.484375 L 345.839844 139.292969 C 345.839844 140.769531 347.070312 141.929688 348.511719 141.929688 C 349.988281 141.929688 351.183594 140.699219 351.148438 139.257812 L 351.148438 137.921875 C 352.378906 139.152344 353.472656 141.542969 354.316406 145.023438 C 355.6875 150.476562 355.195312 153.394531 354.703125 153.957031 L 354.457031 153.21875 C 353.964844 151.847656 352.449219 151.109375 351.042969 151.601562 C 349.953125 151.988281 349.25 153.007812 349.285156 154.132812 C 349.074219 153.992188 348.898438 153.851562 348.6875 153.640625 C 347.949219 152.902344 347.28125 151.847656 346.71875 150.546875 Z M 359.273438 187.054688 C 358.535156 186.316406 357.867188 185.296875 357.304688 183.996094 C 357.128906 183.503906 355.96875 180.230469 355.6875 177.277344 L 355.617188 176.574219 C 355.441406 174.816406 355.335938 173.65625 355.757812 172.777344 C 356.425781 173.761719 357.691406 174.21875 358.851562 173.796875 C 360.1875 173.339844 360.890625 171.933594 360.539062 170.59375 C 360.960938 170.699219 361.316406 170.945312 361.667969 171.296875 C 362.933594 172.53125 364.023438 174.921875 364.902344 178.472656 C 365.5 180.867188 365.746094 182.765625 365.78125 184.171875 C 364.972656 183.503906 363.8125 183.363281 362.828125 183.925781 C 361.527344 184.628906 361.066406 186.246094 361.773438 187.546875 L 362.195312 188.320312 C 361.246094 188.25 360.222656 187.96875 359.273438 187.054688 Z M 377 214.914062 C 376.085938 214.453125 375.136719 213.644531 374.1875 212.554688 C 373.871094 212.132812 371.796875 209.355469 370.671875 206.613281 L 370.390625 205.941406 C 369.542969 203.972656 369.050781 202.777344 369.578125 201.652344 L 370.566406 203.445312 C 371.269531 204.746094 372.886719 205.203125 374.1875 204.5 C 375.488281 203.796875 375.945312 202.179688 375.242188 200.878906 L 374.152344 198.875 C 374.292969 198.945312 374.46875 198.980469 374.609375 199.085938 C 376.191406 199.859375 377.949219 201.863281 379.816406 204.992188 C 382.804688 209.953125 383.15625 212.90625 382.839844 213.46875 C 382.769531 213.539062 382.699219 213.609375 382.628906 213.679688 L 381.644531 210.972656 C 381.152344 209.601562 379.605469 208.863281 378.230469 209.355469 C 376.859375 209.847656 376.121094 211.359375 376.613281 212.765625 L 377.457031 215.089844 C 377.316406 215.054688 377.140625 214.984375 377 214.914062 Z M 381.996094 227.679688 L 382.804688 229.929688 C 383.296875 231.300781 384.808594 232.042969 386.214844 231.546875 C 387.132812 231.230469 387.730469 230.457031 387.941406 229.578125 C 388.1875 229.964844 388.328125 230.421875 388.398438 230.914062 C 388.679688 232.710938 388.1875 235.277344 386.992188 238.476562 C 385.476562 234.75 383.15625 231.476562 380.308594 228.804688 C 380.800781 228.242188 381.328125 227.855469 381.996094 227.679688 Z M 363.953125 265.769531 C 354.667969 267.109375 346.015625 260.636719 344.644531 251.351562 C 343.304688 242.066406 349.777344 233.414062 359.0625 232.078125 C 363.496094 231.441406 367.75 232.570312 371.164062 234.925781 C 370.25 237.140625 369.722656 238.863281 369.722656 238.863281 C 367.1875 248.675781 372.675781 252.96875 377.667969 254.199219 C 375.734375 260.179688 370.566406 264.820312 363.953125 265.769531 Z M 363.953125 265.769531 " fill-opacity="1" fill-rule="nonzero"/></g><g fill="#2e2e2e" fill-opacity="1"><g transform="translate(120.920511, 565.40892)"><g><path d="M 166.25 -59.453125 C 167.332031 -58.765625 167.988281 -57.71875 168.21875 -56.3125 C 168.40625 -54.800781 168.066406 -53.367188 167.203125 -52.015625 L 98.46875 55.90625 C 97.550781 57.332031 96.398438 58.238281 95.015625 58.625 C 93.640625 59.007812 92.410156 58.859375 91.328125 58.171875 L 84.046875 53.53125 C 82.960938 52.84375 82.300781 51.789062 82.0625 50.375 C 81.832031 48.957031 82.175781 47.535156 83.09375 46.109375 L 116.078125 -5.703125 C 116.773438 -6.785156 116.726562 -7.703125 115.9375 -8.453125 C 115.0625 -9.265625 114.171875 -9.257812 113.265625 -8.4375 L 62.21875 35.078125 C 61.320312 35.898438 60.347656 36.347656 59.296875 36.421875 C 58.171875 36.597656 57.203125 36.429688 56.390625 35.921875 L 45.734375 29.125 C 43.753906 27.863281 43.179688 25.984375 44.015625 23.484375 L 61.875 -41.171875 C 62.238281 -42.335938 61.863281 -43.144531 60.75 -43.59375 C 59.65625 -44.050781 58.757812 -43.738281 58.0625 -42.65625 L 25.078125 9.15625 C 24.160156 10.582031 23.007812 11.492188 21.625 11.890625 C 20.25 12.265625 19.019531 12.109375 17.9375 11.421875 L 10.796875 6.875 C 9.628906 6.132812 8.96875 5.082031 8.8125 3.71875 C 8.582031 2.300781 8.925781 0.878906 9.84375 -0.546875 L 78.578125 -108.46875 C 79.441406 -109.820312 80.585938 -110.738281 82.015625 -111.21875 C 83.316406 -111.644531 84.550781 -111.488281 85.71875 -110.75 L 95.015625 -104.828125 C 95.921875 -104.242188 96.554688 -103.457031 96.921875 -102.46875 C 97.253906 -101.382812 97.238281 -100.257812 96.875 -99.09375 L 69.46875 -0.125 C 69.226562 0.863281 69.507812 1.613281 70.3125 2.125 C 71.21875 2.707031 72.019531 2.648438 72.71875 1.953125 L 150.828125 -64.734375 C 151.816406 -65.492188 152.867188 -65.957031 153.984375 -66.125 C 154.960938 -66.257812 155.898438 -66.039062 156.796875 -65.46875 Z M 166.25 -59.453125 "/></g></g></g><g fill="#2e2e2e" fill-opacity="1"><g transform="translate(243.247191, 636.814221)"><g><path d="M 67.609375 12.4375 C 67.660156 10.90625 67.726562 8.832031 67.8125 6.21875 C 67.8125 3.570312 67.882812 -0.0351562 68.03125 -4.609375 C 67.988281 -5.816406 67.710938 -6.921875 67.203125 -7.921875 C 66.554688 -8.859375 65.660156 -9.46875 64.515625 -9.75 L 39.671875 -15.890625 C 38.535156 -16.171875 37.515625 -16.035156 36.609375 -15.484375 C 35.578125 -14.867188 34.765625 -14.03125 34.171875 -12.96875 C 31.191406 -6.675781 28.675781 -1.585938 26.625 2.296875 C 26.03125 3.347656 25.285156 4.148438 24.390625 4.703125 C 23.347656 5.328125 22.304688 5.507812 21.265625 5.25 L 12.421875 3.078125 C 10.972656 2.710938 9.957031 1.691406 9.375 0.015625 C 8.78125 -1.554688 8.90625 -3.171875 9.75 -4.828125 C 11.914062 -9.140625 14.644531 -14.617188 17.9375 -21.265625 C 21.207031 -27.816406 24.769531 -34.898438 28.625 -42.515625 C 32.488281 -50.128906 36.46875 -57.988281 40.5625 -66.09375 C 44.519531 -74.113281 48.335938 -81.789062 52.015625 -89.125 C 55.566406 -96.382812 58.835938 -102.9375 61.828125 -108.78125 C 64.703125 -114.65625 66.972656 -119.203125 68.640625 -122.421875 C 69.128906 -123.503906 69.890625 -124.351562 70.921875 -124.96875 C 71.929688 -125.5 72.957031 -125.632812 74 -125.375 L 85.171875 -122.609375 C 86.203125 -122.359375 87.046875 -121.765625 87.703125 -120.828125 C 88.328125 -119.796875 88.597656 -118.6875 88.515625 -117.5 C 88.097656 -100.238281 87.816406 -85.53125 87.671875 -73.375 C 87.410156 -61.257812 87.191406 -51.046875 87.015625 -42.734375 C 86.804688 -34.328125 86.679688 -27.609375 86.640625 -22.578125 C 86.460938 -17.453125 86.382812 -13.351562 86.40625 -10.28125 C 86.3125 -7.226562 86.273438 -4.867188 86.296875 -3.203125 C 86.222656 -1.585938 86.175781 -0.0664062 86.15625 1.359375 C 86.132812 2.785156 86.128906 4.378906 86.140625 6.140625 C 86.003906 7.960938 85.90625 10.570312 85.84375 13.96875 C 85.820312 15.832031 85.175781 17.320312 83.90625 18.4375 C 82.625 19.65625 81.253906 20.082031 79.796875 19.71875 L 70.953125 17.546875 C 69.910156 17.285156 69.132812 16.648438 68.625 15.640625 C 67.976562 14.703125 67.640625 13.632812 67.609375 12.4375 Z M 62.671875 -32.28125 C 64.128906 -31.914062 65.503906 -32.347656 66.796875 -33.578125 C 68.054688 -34.691406 68.691406 -36.179688 68.703125 -38.046875 C 68.734375 -41.660156 68.816406 -45.539062 68.953125 -49.6875 C 68.992188 -53.84375 69.0625 -58.328125 69.15625 -63.140625 C 69.175781 -64.554688 68.847656 -65.679688 68.171875 -66.515625 C 67.492188 -67.335938 66.691406 -67.867188 65.765625 -68.109375 C 64.835938 -68.335938 63.878906 -68.238281 62.890625 -67.8125 C 61.910156 -67.394531 61.097656 -66.550781 60.453125 -65.28125 C 58.515625 -61.476562 56.648438 -57.710938 54.859375 -53.984375 C 52.953125 -50.285156 51.046875 -46.582031 49.140625 -42.875 C 48.296875 -41.21875 48.175781 -39.601562 48.78125 -38.03125 C 49.351562 -36.34375 50.363281 -35.316406 51.8125 -34.953125 Z M 62.671875 -32.28125 "/></g></g></g><g fill="#2e2e2e" fill-opacity="1"><g transform="translate(352.35799, 660.522509)"><g><path d="M 50.421875 -58.1875 C 52.335938 -53.207031 53.75 -49.554688 54.65625 -47.234375 C 55.5625 -44.804688 56.296875 -42.957031 56.859375 -41.6875 C 57.304688 -40.414062 57.703125 -39.304688 58.046875 -38.359375 C 58.390625 -37.398438 59.003906 -35.914062 59.890625 -33.90625 C 60.691406 -31.800781 61.878906 -28.738281 63.453125 -24.71875 C 64.921875 -20.6875 67.066406 -15.023438 69.890625 -7.734375 C 70.472656 -6.253906 70.347656 -4.863281 69.515625 -3.5625 C 68.585938 -2.15625 67.269531 -1.4375 65.5625 -1.40625 L 56.4375 -1.203125 C 54.195312 -1.160156 52.6875 -2.140625 51.90625 -4.140625 C 50.320312 -8.160156 49.132812 -11.285156 48.34375 -13.515625 C 47.4375 -15.734375 46.703125 -17.640625 46.140625 -19.234375 C 45.566406 -20.710938 45 -22.195312 44.4375 -23.6875 C 43.875 -25.050781 43.140625 -27.003906 42.234375 -29.546875 C 41.222656 -31.972656 39.925781 -35.300781 38.34375 -39.53125 C 36.757812 -43.65625 34.613281 -49.207031 31.90625 -56.1875 C 31.351562 -57.238281 30.546875 -57.753906 29.484375 -57.734375 C 28.203125 -57.703125 27.148438 -57.253906 26.328125 -56.390625 C 25.378906 -55.410156 24.914062 -54.28125 24.9375 -53 L 25.96875 -5.203125 C 25.988281 -3.921875 25.585938 -2.84375 24.765625 -1.96875 C 23.816406 -0.988281 22.707031 -0.484375 21.4375 -0.453125 L 12.640625 -0.265625 C 11.359375 -0.242188 10.28125 -0.703125 9.40625 -1.640625 C 8.425781 -2.472656 7.925781 -3.53125 7.90625 -4.8125 L 5.109375 -134.96875 C 5.085938 -136.25 5.546875 -137.378906 6.484375 -138.359375 C 7.316406 -139.234375 8.375 -139.679688 9.65625 -139.703125 L 36.03125 -140.265625 C 42.53125 -140.410156 48.160156 -138.929688 52.921875 -135.828125 C 57.578125 -132.734375 61.285156 -128.707031 64.046875 -123.75 C 66.828125 -118.6875 68.710938 -113.078125 69.703125 -106.921875 C 70.578125 -100.742188 70.488281 -94.71875 69.4375 -88.84375 C 68.394531 -82.945312 66.382812 -77.515625 63.40625 -72.546875 C 60.414062 -67.578125 56.441406 -63.8125 51.484375 -61.25 C 50.210938 -60.695312 49.859375 -59.675781 50.421875 -58.1875 Z M 24.359375 -80.359375 C 24.378906 -79.078125 24.882812 -78.019531 25.875 -77.1875 C 26.738281 -76.238281 27.8125 -75.78125 29.09375 -75.8125 L 37.71875 -76 C 41.019531 -76.070312 43.765625 -77.300781 45.953125 -79.6875 C 48.148438 -81.976562 49.800781 -84.84375 50.90625 -88.28125 C 52 -91.71875 52.5 -95.457031 52.40625 -99.5 C 52.320312 -103.445312 51.710938 -107.109375 50.578125 -110.484375 C 49.335938 -113.878906 47.570312 -116.722656 45.28125 -119.015625 C 43 -121.210938 40.148438 -122.273438 36.734375 -122.203125 L 28.109375 -122.015625 C 26.828125 -121.984375 25.773438 -121.535156 24.953125 -120.671875 C 24.003906 -119.691406 23.539062 -118.5625 23.5625 -117.28125 Z M 24.359375 -80.359375 "/></g></g></g><g fill="#2e2e2e" fill-opacity="1"><g transform="translate(449.618798, 657.169774)"><g><path d="M 64.671875 -23.28125 C 63.953125 -24.625 62.972656 -26.453125 61.734375 -28.765625 C 60.398438 -31.046875 58.644531 -34.195312 56.46875 -38.21875 C 55.820312 -39.25 55.019531 -40.066406 54.0625 -40.671875 C 53.050781 -41.148438 51.976562 -41.222656 50.84375 -40.890625 L 26.28125 -33.703125 C 25.164062 -33.367188 24.351562 -32.738281 23.84375 -31.8125 C 23.257812 -30.757812 22.976562 -29.625 23 -28.40625 C 23.59375 -21.476562 23.976562 -15.8125 24.15625 -11.40625 C 24.175781 -10.195312 23.9375 -9.128906 23.4375 -8.203125 C 22.851562 -7.140625 22.046875 -6.457031 21.015625 -6.15625 L 12.28125 -3.59375 C 10.851562 -3.175781 9.460938 -3.546875 8.109375 -4.703125 C 6.796875 -5.765625 6.09375 -7.226562 6 -9.09375 C 5.707031 -13.90625 5.304688 -20.007812 4.796875 -27.40625 C 4.328125 -34.71875 3.84375 -42.632812 3.34375 -51.15625 C 2.84375 -59.65625 2.320312 -68.441406 1.78125 -77.515625 C 1.164062 -86.441406 0.601562 -95 0.09375 -103.1875 C -0.488281 -111.238281 -0.96875 -118.546875 -1.34375 -125.109375 C -1.8125 -131.640625 -2.128906 -136.710938 -2.296875 -140.328125 C -2.421875 -141.503906 -2.191406 -142.625 -1.609375 -143.6875 C -1.015625 -144.644531 -0.203125 -145.273438 0.828125 -145.578125 L 11.875 -148.8125 C 12.894531 -149.113281 13.925781 -149.023438 14.96875 -148.546875 C 16.03125 -147.972656 16.820312 -147.148438 17.34375 -146.078125 C 25.65625 -130.960938 32.816406 -118.113281 38.828125 -107.53125 C 44.691406 -96.925781 49.640625 -87.992188 53.671875 -80.734375 C 57.722656 -73.367188 61 -67.5 63.5 -63.125 C 65.925781 -58.601562 67.921875 -55.015625 69.484375 -52.359375 C 70.941406 -49.679688 72.09375 -47.628906 72.9375 -46.203125 C 73.695312 -44.773438 74.425781 -43.441406 75.125 -42.203125 C 75.832031 -40.941406 76.628906 -39.5625 77.515625 -38.0625 C 78.328125 -36.40625 79.554688 -34.097656 81.203125 -31.140625 C 82.117188 -29.515625 82.316406 -27.898438 81.796875 -26.296875 C 81.296875 -24.597656 80.328125 -23.539062 78.890625 -23.125 L 70.140625 -20.5625 C 69.109375 -20.257812 68.117188 -20.414062 67.171875 -21.03125 C 66.140625 -21.507812 65.304688 -22.257812 64.671875 -23.28125 Z M 37.90625 -59.4375 C 39.34375 -59.851562 40.3125 -60.914062 40.8125 -62.625 C 41.34375 -64.226562 41.144531 -65.84375 40.21875 -67.46875 C 38.40625 -70.59375 36.523438 -73.984375 34.578125 -77.640625 C 32.515625 -81.265625 30.316406 -85.175781 27.984375 -89.375 C 27.273438 -90.601562 26.421875 -91.40625 25.421875 -91.78125 C 24.421875 -92.15625 23.460938 -92.207031 22.546875 -91.9375 C 21.628906 -91.664062 20.847656 -91.101562 20.203125 -90.25 C 19.566406 -89.394531 19.289062 -88.257812 19.375 -86.84375 C 19.625 -82.582031 19.90625 -78.382812 20.21875 -74.25 C 20.445312 -70.101562 20.664062 -65.953125 20.875 -61.796875 C 20.976562 -59.929688 21.6875 -58.46875 23 -57.40625 C 24.34375 -56.238281 25.734375 -55.863281 27.171875 -56.28125 Z M 37.90625 -59.4375 "/></g></g></g><g fill="#2e2e2e" fill-opacity="1"><g transform="translate(554.98931, 622.728073)"><g><path d="M 1.640625 -123.46875 C 2.296875 -122.363281 2.566406 -121.289062 2.453125 -120.25 C 2.242188 -119.125 1.679688 -118.289062 0.765625 -117.75 L -8.4375 -112.265625 C -9.351562 -111.722656 -10.304688 -111.65625 -11.296875 -112.0625 C -12.359375 -112.40625 -13.21875 -113.128906 -13.875 -114.234375 L -14.53125 -115.328125 C -17.039062 -119.546875 -19.53125 -122.160156 -22 -123.171875 C -24.40625 -124.097656 -26.9375 -123.769531 -29.59375 -122.1875 C -32.25 -120.601562 -33.75 -118.53125 -34.09375 -115.96875 C -34.457031 -113.257812 -33.382812 -109.796875 -30.875 -105.578125 C -29.625 -103.472656 -28.195312 -101.597656 -26.59375 -99.953125 C -25 -98.304688 -23.050781 -96.800781 -20.75 -95.4375 C -18.4375 -94.070312 -15.742188 -92.882812 -12.671875 -91.875 C -9.609375 -90.707031 -5.957031 -89.59375 -1.71875 -88.53125 C 3.675781 -87.144531 8.445312 -85.703125 12.59375 -84.203125 C 16.675781 -82.523438 20.25 -80.679688 23.3125 -78.671875 C 26.425781 -76.566406 29.175781 -74.234375 31.5625 -71.671875 C 33.925781 -68.984375 36.117188 -65.945312 38.140625 -62.5625 C 43.765625 -53.125 46.054688 -44.679688 45.015625 -37.234375 C 43.953125 -29.660156 39.390625 -23.472656 31.328125 -18.671875 C 23.265625 -13.859375 15.644531 -12.785156 8.46875 -15.453125 C 1.351562 -18.046875 -5.015625 -24.0625 -10.640625 -33.5 L -12.78125 -37.078125 C -13.375 -38.078125 -13.570312 -39.128906 -13.375 -40.234375 C -13.207031 -41.210938 -12.710938 -41.945312 -11.890625 -42.4375 L -2.546875 -48 C -1.722656 -48.5 -0.796875 -48.613281 0.234375 -48.34375 C 1.304688 -48 2.140625 -47.328125 2.734375 -46.328125 L 5.53125 -41.65625 C 8.039062 -37.4375 10.546875 -34.894531 13.046875 -34.03125 C 15.554688 -33.164062 18.140625 -33.523438 20.796875 -35.109375 C 23.453125 -36.691406 25.035156 -38.816406 25.546875 -41.484375 C 25.972656 -44.085938 24.929688 -47.5 22.421875 -51.71875 C 21.160156 -53.820312 19.734375 -55.695312 18.140625 -57.34375 C 16.535156 -59 14.582031 -60.503906 12.28125 -61.859375 C 9.988281 -63.222656 7.316406 -64.488281 4.265625 -65.65625 C 1.179688 -66.664062 -2.476562 -67.707031 -6.71875 -68.78125 C -12.125 -70.15625 -16.875 -71.671875 -20.96875 -73.328125 C -25.007812 -74.890625 -28.59375 -76.726562 -31.71875 -78.84375 C -34.863281 -80.8125 -37.617188 -83.140625 -39.984375 -85.828125 C -42.367188 -88.390625 -44.566406 -91.363281 -46.578125 -94.75 C -52.140625 -104.09375 -54.4375 -112.53125 -53.46875 -120.0625 C -52.5 -127.59375 -47.984375 -133.757812 -39.921875 -138.5625 C -31.953125 -143.3125 -24.421875 -144.320312 -17.328125 -141.59375 C -10.242188 -138.851562 -3.921875 -132.8125 1.640625 -123.46875 Z M 1.640625 -123.46875 "/></g></g></g><g fill="#2e2e2e" fill-opacity="1"><g transform="translate(624.84267, 578.363504)"><g><path d="M 16.984375 -20.3125 C 17.804688 -19.320312 18.171875 -18.226562 18.078125 -17.03125 C 17.953125 -15.675781 17.398438 -14.59375 16.421875 -13.78125 L 9.6875 -8.125 C 8.707031 -7.300781 7.582031 -6.976562 6.3125 -7.15625 C 5.019531 -7.195312 3.960938 -7.710938 3.140625 -8.703125 L -80.515625 -108.4375 C -81.335938 -109.425781 -81.6875 -110.59375 -81.5625 -111.9375 C -81.457031 -113.144531 -80.914062 -114.160156 -79.9375 -114.984375 L -73.203125 -120.640625 C -72.222656 -121.453125 -71.085938 -121.84375 -69.796875 -121.8125 C -68.535156 -121.625 -67.492188 -121.035156 -66.671875 -120.046875 Z M 16.984375 -20.3125 "/></g></g></g></svg>